<?xml version="1.0" encoding="utf-8"?>
<svg viewBox="0 0 500 500" xmlns="http://www.w3.org/2000/svg">
    <path
        d="M 124.748 242.207 L 124.748 226.602 L 127.856 226.602 L 131.55 237.651 Q 132.061 239.195 132.295 239.961 Q 132.561 239.109 133.125 237.46 L 136.861 226.602 L 139.64 226.602 L 139.64 242.207 L 137.649 242.207 L 137.649 229.146 L 133.115 242.207 L 131.252 242.207 L 126.738 228.923 L 126.738 242.207 Z"
        transform="matrix(10.643591, 0, 0, 20.114035, -1304.703999, -4470.562078)" style="fill: rgb(239, 4, 4);" />
    <path
        d="M 142.886 242.207 L 142.886 226.602 L 144.951 226.602 L 144.951 240.365 L 152.637 240.365 L 152.637 242.207 Z"
        transform="matrix(10.643591, 0, 0, 20.114035, -1304.703999, -4470.562078)" style="fill: rgb(50, 255, 13);" />
    <path
        d="M 166.23 236.736 L 168.295 237.257 Q 167.646 239.801 165.959 241.137 Q 164.272 242.473 161.834 242.473 Q 159.311 242.473 157.731 241.446 Q 156.15 240.419 155.325 238.471 Q 154.5 236.523 154.5 234.287 Q 154.5 231.85 155.431 230.035 Q 156.363 228.22 158.082 227.278 Q 159.801 226.336 161.866 226.336 Q 164.208 226.336 165.804 227.528 Q 167.401 228.72 168.029 230.881 L 165.996 231.36 Q 165.453 229.657 164.421 228.88 Q 163.388 228.103 161.823 228.103 Q 160.024 228.103 158.816 228.965 Q 157.608 229.827 157.118 231.28 Q 156.629 232.733 156.629 234.277 Q 156.629 236.267 157.209 237.752 Q 157.789 239.237 159.013 239.972 Q 160.237 240.706 161.664 240.706 Q 163.399 240.706 164.602 239.706 Q 165.804 238.705 166.23 236.736 Z"
        transform="matrix(10.643591, 0, 0, 20.114035, -1304.703999, -4470.562078)" style="fill: rgb(0, 68, 255);" />
</svg>